<svg xmlns="http://www.w3.org/2000/svg" width="512" height="512" viewBox="0 0 512 512" version="1.1">
	<path d="M 225.868 44.347 C 222.220 45.014, 218.508 46.164, 217.618 46.902 C 216.160 48.112, 216 54.257, 216 109.122 C 216 174.753, 216.150 173.032, 210.924 167.376 C 207.404 163.566, 196.177 154.706, 190.246 151.057 C 187.431 149.324, 181.386 146.519, 176.814 144.824 C 169.640 142.164, 166.772 141.673, 155.893 141.243 C 132.362 140.313, 115.432 145.423, 99.279 158.331 C 91.414 164.616, 86.556 170.395, 80.644 180.500 C 72.038 195.209, 67.549 209.716, 64.568 232.458 C 61.025 259.477, 63.850 293.005, 71.436 314 C 76.781 328.791, 85.176 342.323, 93.745 349.961 C 106.210 361.070, 118.063 366.202, 136.935 368.661 C 149.095 370.246, 157.013 369.710, 169.494 366.460 C 176.269 364.695, 189.123 358.316, 195.107 353.748 C 197.565 351.872, 200.322 349.919, 201.233 349.409 C 202.144 348.900, 206.480 345.224, 210.870 341.241 C 215.259 337.259, 219.109 334, 219.425 334 C 219.741 334, 220 340.025, 220 347.389 C 220 364.026, 220.347 364.637, 230.500 365.881 C 237.090 366.688, 239.969 366.611, 247.718 365.417 C 254.541 364.366, 254 378.115, 254 205.863 C 254 105.996, 253.648 49.210, 253.021 48.039 C 251.152 44.546, 236.025 42.489, 225.868 44.347 M 351.500 143.609 C 347.100 144.396, 341.925 145.543, 340 146.158 C 334.323 147.973, 321.712 154.574, 316.893 158.252 C 314.435 160.128, 311.678 162.081, 310.767 162.591 C 309.856 163.100, 305.520 166.776, 301.130 170.759 C 296.741 174.741, 292.891 178, 292.575 178 C 292.259 178, 292 171.975, 292 164.611 C 292 147.974, 291.653 147.363, 281.500 146.119 C 274.910 145.312, 272.031 145.389, 264.282 146.583 C 257.459 147.634, 258 133.900, 258 305.990 C 258 391.705, 258.286 462.583, 258.636 463.495 C 260.659 468.767, 286.287 470.149, 293.750 465.389 L 296 463.954 296 402.977 C 296 337.240, 295.850 338.968, 301.076 344.624 C 304.596 348.434, 315.823 357.294, 321.754 360.943 C 324.569 362.676, 330.614 365.481, 335.186 367.176 C 342.360 369.836, 345.228 370.327, 356.107 370.757 C 379.638 371.687, 396.568 366.577, 412.721 353.669 C 420.586 347.384, 425.444 341.605, 431.356 331.500 C 439.962 316.791, 444.451 302.284, 447.432 279.542 C 450.975 252.523, 448.150 218.995, 440.564 198 C 435.219 183.209, 426.824 169.677, 418.255 162.039 C 406.025 151.139, 393.980 145.831, 376.061 143.445 C 363.402 141.760, 361.788 141.771, 351.500 143.609 M 149 174.154 C 133.390 176.258, 120.888 186.306, 112.660 203.361 C 105.627 217.936, 103.045 231.559, 103.018 254.220 C 102.960 303.719, 118.305 332.112, 147.307 336.168 C 155.816 337.358, 166.888 335.824, 174.686 332.375 C 184.852 327.879, 199.212 315.817, 210.250 302.501 L 216 295.565 216 254.289 L 216 213.013 208.883 204.936 C 200.613 195.551, 188.649 185.040, 181.500 180.879 C 176.094 177.732, 165.910 174.416, 159.500 173.715 C 157.300 173.475, 152.575 173.672, 149 174.154 M 348 176.386 C 339.179 178.134, 333.206 180.969, 324.687 187.451 C 315.686 194.298, 309.114 200.615, 301.750 209.499 L 296 216.435 296 257.711 L 296 298.987 303.057 306.996 C 324.151 330.934, 342.518 340.470, 362.485 337.851 C 378.654 335.729, 390.985 325.956, 399.340 308.639 C 406.373 294.064, 408.955 280.441, 408.982 257.780 C 409.022 223.459, 402.244 200.762, 387.797 186.841 C 377.804 177.212, 363.195 173.374, 348 176.386" stroke="none" fill="black" fill-rule="evenodd"/>
</svg>